<svg fill="#000000" xmlns="http://www.w3.org/2000/svg"  viewBox="0 0 48 48" width="24px" height="24px"><path d="M 24 4 C 19.086439 4 14.642782 4.3925367 11.332031 5.0546875 C 9.6766559 5.3857629 8.310835 5.7722418 7.234375 6.28125 C 6.696145 6.5357541 6.2221567 6.8165404 5.8066406 7.2226562 C 5.3911246 7.6287721 5 8.2517137 5 9 C 5 9.7482863 5.3911246 10.371228 5.8066406 10.777344 C 6.2221567 11.18346 6.696145 11.464246 7.234375 11.71875 C 8.310835 12.227758 9.6766559 12.614238 11.332031 12.945312 C 14.642782 13.607463 19.086439 14 24 14 C 28.913561 14 33.357218 13.607464 36.667969 12.945312 C 38.323344 12.614237 39.689165 12.227758 40.765625 11.71875 C 41.303855 11.464246 41.777843 11.18346 42.193359 10.777344 C 42.608875 10.371228 43 9.7482863 43 9 C 43 8.2517137 42.608875 7.6287721 42.193359 7.2226562 C 41.777843 6.8165404 41.303855 6.5357541 40.765625 6.28125 C 39.689165 5.7722418 38.323344 5.3857629 36.667969 5.0546875 C 33.357218 4.3925367 28.913561 4 24 4 z M 24 7 C 28.751429 7 33.05708 7.3914937 36.080078 7.9960938 C 37.591577 8.2983937 38.789741 8.6656804 39.484375 8.9941406 C 39.489875 8.9967506 39.488641 8.99739 39.494141 9 C 39.488641 9.00261 39.489975 9.0032494 39.484375 9.0058594 C 38.789741 9.3343184 37.591577 9.7016065 36.080078 10.003906 C 33.05708 10.608506 28.751429 11 24 11 C 19.248571 11 14.94292 10.608506 11.919922 10.003906 C 10.408423 9.7016064 9.2102589 9.3343196 8.515625 9.0058594 C 8.510102 9.0032478 8.511315 9.0026089 8.5058594 9 C 8.5113194 8.99739 8.510095 8.9967506 8.515625 8.9941406 C 9.2102545 8.665681 10.408423 8.2983937 11.919922 7.9960938 C 14.94292 7.3914937 19.248571 7 24 7 z M 7.0703125 14.369141 C 5.1203125 17.449141 4 21.09 4 25 C 4 36.03 12.97 45 24 45 C 35.03 45 44 36.03 44 25 C 44 21.09 42.879688 17.449141 40.929688 14.369141 C 37.839687 15.579141 32.67 16.5 24 16.5 C 15.33 16.5 10.160312 15.579141 7.0703125 14.369141 z M 18 19.5 C 19.381 19.5 20.5 20.619 20.5 22 C 20.5 23.381 19.381 24.5 18 24.5 C 16.619 24.5 15.5 23.381 15.5 22 C 15.5 20.619 16.619 19.5 18 19.5 z M 30 19.5 C 31.381 19.5 32.5 20.619 32.5 22 C 32.5 23.381 31.381 24.5 30 24.5 C 28.619 24.5 27.5 23.381 27.5 22 C 27.5 20.619 28.619 19.5 30 19.5 z M 15.650391 31.003906 C 16.130498 30.969238 16.6175 31.166016 16.9375 31.572266 C 18.6515 33.751266 21.226 35 24 35 C 26.774 35 29.3485 33.750266 31.0625 31.572266 C 31.5735 30.922266 32.514969 30.808266 33.167969 31.322266 C 33.817969 31.833266 33.932922 32.776734 33.419922 33.427734 C 31.133922 36.332734 27.7 38 24 38 C 20.3 38 16.866078 36.333734 14.580078 33.427734 C 14.067078 32.776734 14.182031 31.832313 14.832031 31.320312 C 15.076906 31.127562 15.362326 31.024707 15.650391 31.003906 z"/></svg>