<svg fill="#000000" xmlns="http://www.w3.org/2000/svg"  viewBox="0 0 48 48" width="24px" height="24px"><path d="M 24 4 C 12.972066 4 4 12.972074 4 24 C 4 35.027926 12.972066 44 24 44 C 35.027934 44 44 35.027926 44 24 C 44 12.972074 35.027934 4 24 4 z M 18 17 C 20.062 17 21.413547 18.291453 21.560547 18.439453 C 22.146547 19.025453 22.146547 19.974547 21.560547 20.560547 C 21.267547 20.853547 20.884 21 20.5 21 C 20.122 21 19.744125 20.858219 19.453125 20.574219 C 19.417125 20.541219 18.813 20 18 20 C 17.167 20 16.551922 20.568219 16.544922 20.574219 C 15.948922 21.135219 15.002641 21.124156 14.431641 20.535156 C 13.860641 19.947156 13.859453 19.018453 14.439453 18.439453 C 14.586453 18.292453 15.938 17 18 17 z M 30 17 C 32.062 17 33.413547 18.291453 33.560547 18.439453 C 34.146547 19.025453 34.146547 19.974547 33.560547 20.560547 C 33.267547 20.853547 32.884 21 32.5 21 C 32.116 21 31.732453 20.853547 31.439453 20.560547 C 31.438453 20.560547 30.827 20 30 20 C 29.167 20 28.551922 20.568219 28.544922 20.574219 C 27.948922 21.135219 27.002641 21.124156 26.431641 20.535156 C 25.860641 19.947156 25.859453 19.018453 26.439453 18.439453 C 26.586453 18.292453 27.938 17 30 17 z M 15.648438 27.001953 C 16.128486 26.967129 16.616875 27.165391 16.9375 27.572266 C 18.6525 29.751266 21.227 31 24 31 C 26.773 31 29.3475 29.750266 31.0625 27.572266 C 31.5745 26.922266 32.517969 26.808266 33.167969 27.322266 C 33.818969 27.834266 33.931922 28.776734 33.419922 29.427734 C 31.132922 32.332734 27.699 34 24 34 C 20.301 34 16.867078 32.333734 14.580078 29.427734 C 14.068078 28.776734 14.181031 27.833313 14.832031 27.320312 C 15.075781 27.127188 15.360408 27.022848 15.648438 27.001953 z"/></svg>