<?xml version="1.0" encoding="utf-8"?>
<!-- Generator: Adobe Illustrator 26.0.1, SVG Export Plug-In . SVG Version: 6.00 Build 0)  -->
<svg version="1.1" id="Calque_1" xmlns="http://www.w3.org/2000/svg" xmlns:xlink="http://www.w3.org/1999/xlink" x="0px" y="0px"
	 viewBox="0 0 24 24" style="enable-background:new 0 0 24 24;" xml:space="preserve">
<style type="text/css">
	.st0{fill:#FFFFFF;}
	.st1{font-family:'MyriadPro-Regular';}
	.st2{font-size:6px;}
</style>
<path d="M12.3,1.8C6.8,1.8,2.8,5,2.8,9.4c0,1.8,0.5,3.6,1.4,5.2c0.1,0.1,0.1,0.3,0.1,0.5v1.9c0,1.5,1.2,2.8,2.8,2.8h0.5
	c0.1,0,0.2,0.1,0.2,0.3c0,1.5,1.2,2.7,2.8,2.7H14c1.5,0,2.7-1.2,2.7-2.7c0-0.1,0.1-0.3,0.2-0.3h0.5c1.5,0,2.8-1.2,2.8-2.8v-1.9
	c0-0.2,0-0.3,0.1-0.5c0.9-1.6,1.4-3.4,1.4-5.2C21.8,5,17.8,1.8,12.3,1.8z M12.7,18.9c-0.1,0-0.1,0.1-0.2,0.1c-0.2,0-0.3-0.1-0.4-0.3
	L12,18l-0.1,0.7c-0.1,0.2-0.4,0.4-0.6,0.2c-0.2-0.1-0.3-0.4-0.2-0.7l0.5-1c0.2-0.3,0.7-0.3,0.9,0l0.5,1C13.1,18.5,13,18.8,12.7,18.9
	z"/>
<text transform="matrix(1 0 0 1 7.3322 13.5675)" class="st0 st1 st2">x</text>
<text transform="matrix(1 0 0 1 14.5026 13.5672)" class="st0 st1 st2">x</text>
</svg>
