<svg fill="#000000" xmlns="http://www.w3.org/2000/svg"  viewBox="0 0 48 48" width="24px" height="24px"><path d="M 24 4 C 12.972066 4 4 12.972074 4 24 C 4 35.027926 12.972066 44 24 44 C 35.027934 44 44 35.027926 44 24 C 44 12.972074 35.027934 4 24 4 z M 18 17.5 C 19.381 17.5 20.5 18.619 20.5 20 C 20.5 21.381 19.381 22.5 18 22.5 C 16.619 22.5 15.5 21.381 15.5 20 C 15.5 18.619 16.619 17.5 18 17.5 z M 30 17.5 C 31.381 17.5 32.5 18.619 32.5 20 C 32.5 21.381 31.381 22.5 30 22.5 C 28.619 22.5 27.5 21.381 27.5 20 C 27.5 18.619 28.619 17.5 30 17.5 z M 17.5 29 L 30.5 29 C 31.328 29 32 29.672 32 30.5 C 32 31.328 31.328 32 30.5 32 L 17.5 32 C 16.672 32 16 31.328 16 30.5 C 16 29.672 16.672 29 17.5 29 z"/></svg>