<svg fill="#000000" xmlns="http://www.w3.org/2000/svg"  viewBox="0 0 48 48" width="24px" height="24px"><path d="M 24 4 C 12.972066 4 4 12.972074 4 24 C 4 35.027926 12.972066 44 24 44 C 35.027934 44 44 35.027926 44 24 C 44 12.972074 35.027934 4 24 4 z M 18 16.5 C 19.381 16.5 20.5 17.619 20.5 19 C 20.5 20.381 19.381 21.5 18 21.5 C 16.619 21.5 15.5 20.381 15.5 19 C 15.5 17.619 16.619 16.5 18 16.5 z M 30 16.5 C 31.381 16.5 32.5 17.619 32.5 19 C 32.5 20.381 31.381 21.5 30 21.5 C 28.619 21.5 27.5 20.381 27.5 19 C 27.5 17.619 28.619 16.5 30 16.5 z M 24 26 C 27.7 26 31.133922 27.666266 33.419922 30.572266 C 33.932922 31.223266 33.817969 32.167687 33.167969 32.679688 C 32.892969 32.896687 32.564234 33 32.240234 33 C 31.796234 33 31.3575 32.803734 31.0625 32.427734 C 29.3485 30.248734 26.774 29 24 29 C 21.226 29 18.6515 30.249734 16.9375 32.427734 C 16.4265 33.077734 15.484031 33.192734 14.832031 32.677734 C 14.182031 32.166734 14.067078 31.223266 14.580078 30.572266 C 16.866078 27.667266 20.3 26 24 26 z"/></svg>